<mxfile host="app.diagrams.net" modified="2024-01-30T07:09:34.621Z" agent="Mozilla/5.0 (Windows NT 10.0; Win64; x64) AppleWebKit/537.36 (KHTML, like Gecko) Chrome/121.0.0.0 Safari/537.36" etag="P2nWtM3irtOFGyNTEhtM" version="23.0.2" type="github">
  <diagram name="Page-1" id="XmZg8NHxo9RiyZPfIhOY">
    <mxGraphModel dx="684" dy="504" grid="1" gridSize="10" guides="1" tooltips="1" connect="1" arrows="1" fold="1" page="1" pageScale="1" pageWidth="850" pageHeight="1100" math="0" shadow="0">
      <root>
        <mxCell id="0" />
        <mxCell id="1" parent="0" />
        <mxCell id="pfg5mnfOpwtks3_Hf6zN-1" value="&lt;font face=&quot;Comic Sans MS&quot;&gt;&lt;span style=&quot;font-size: 18px;&quot;&gt;&lt;b&gt;기획자가 준비&lt;/b&gt;&lt;/span&gt;&lt;/font&gt;" style="rounded=0;whiteSpace=wrap;html=1;strokeWidth=2;fillColor=#fff2cc;strokeColor=#d6b656;dashed=1;" vertex="1" parent="1">
          <mxGeometry x="120" y="680" width="160" height="40" as="geometry" />
        </mxCell>
        <mxCell id="pfg5mnfOpwtks3_Hf6zN-2" value="&lt;font face=&quot;Comic Sans MS&quot;&gt;&lt;font style=&quot;font-size: 18px;&quot;&gt;LLM&lt;/font&gt;&lt;br&gt;(GPT-4)&lt;/font&gt;" style="rounded=0;whiteSpace=wrap;html=1;strokeWidth=2;" vertex="1" parent="1">
          <mxGeometry x="360" y="410" width="120" height="60" as="geometry" />
        </mxCell>
        <mxCell id="pfg5mnfOpwtks3_Hf6zN-10" value="&lt;font face=&quot;Comic Sans MS&quot;&gt;&lt;span style=&quot;font-size: 18px;&quot;&gt;유저&lt;/span&gt;&lt;/font&gt;" style="rounded=0;whiteSpace=wrap;html=1;strokeWidth=2;fontStyle=1" vertex="1" parent="1">
          <mxGeometry x="360" y="320" width="120" height="40" as="geometry" />
        </mxCell>
        <mxCell id="pfg5mnfOpwtks3_Hf6zN-11" value="&lt;font face=&quot;Comic Sans MS&quot;&gt;&lt;span style=&quot;font-size: 18px;&quot;&gt;&lt;b&gt;추상화된 당일의 환경 정보&lt;/b&gt;&lt;/span&gt;&lt;/font&gt;" style="rounded=0;whiteSpace=wrap;html=1;strokeWidth=2;fillColor=#fff2cc;strokeColor=#d6b656;" vertex="1" parent="1">
          <mxGeometry x="40" y="340" width="240" height="60" as="geometry" />
        </mxCell>
        <mxCell id="pfg5mnfOpwtks3_Hf6zN-13" value="&lt;font face=&quot;Comic Sans MS&quot;&gt;&lt;span style=&quot;font-size: 18px;&quot;&gt;&lt;b&gt;추상화된 당일의 환경 정보&lt;/b&gt;&lt;br&gt;(비밀)&lt;br&gt;&lt;/span&gt;&lt;/font&gt;" style="rounded=0;whiteSpace=wrap;html=1;strokeWidth=2;fillColor=#e1d5e7;strokeColor=#9673a6;" vertex="1" parent="1">
          <mxGeometry x="40" y="420" width="240" height="60" as="geometry" />
        </mxCell>
      </root>
    </mxGraphModel>
  </diagram>
</mxfile>
